<?xml version="1.0" encoding="UTF-8"?>
<svg id="Layer_1" data-name="Layer 1" xmlns="http://www.w3.org/2000/svg" viewBox="0 0 93.9574468085 92.7659574468">
  <defs>
    <style>
      .cls-1 {
        fill: #ef6833;
      }

      .cls-2 {
        fill: #e2562b;
      }

      .cls-3 {
        fill: #f06e30;
      }

      .cls-4 {
        fill: #ea622d;
      }

      .cls-5 {
        fill: #ed6237;
      }

      .cls-6 {
        fill: #2c3132;
      }
    </style>
  </defs>
  <rect class="cls-3" x="65.6972616768" y="64.143725116" width="9.306789078" height="14.0872388489" rx="4.2729990241" ry="4.2729990241" transform="translate(-29.4747172369 78.3809297196) rotate(-49.4604006359)"/>
  <rect class="cls-4" x="65.1536761885" y="18.2039694822" width="9.306789078" height="14.0872388489" rx="4.2729990241" ry="4.2729990241" transform="translate(95.9927325662 94.7082179222) rotate(-130.5395993615)"/>
  <rect class="cls-1" x="15.8913321328" y="64.2480529373" width="9.306789078" height="14.0872388489" rx="4.2729990241" ry="4.2729990241" transform="translate(-20.2803467737 133.2424731662) rotate(-130.5395993615)"/>
  <rect class="cls-2" x="15.5800582278" y="19.0610154442" width="9.306789078" height="14.0872388489" rx="4.2729990241" ry="4.2729990241" transform="translate(-12.7561521653 24.5138680993) rotate(-49.4604006359)"/>
  <rect class="cls-2" x="41.1187427385" y="11.886923774" width="9.306789078" height="14.0872388489" rx="4.2729990241" ry="4.2729990241" transform="translate(91.544274555 37.861086397) rotate(180)"/>
  <rect class="cls-3" x="41.0366641241" y="70.8829787395" width="9.306789078" height="14.0872388489" rx="4.2729990241" ry="4.2729990241" transform="translate(91.3801173263 155.853196328) rotate(180)"/>
  <rect class="cls-4" x="70.4753312368" y="41.4177505113" width="9.306789078" height="14.0872388489" rx="4.2729990241" ry="4.2729990241" transform="translate(26.6673558403 123.5900957117) rotate(-90.0000000001)"/>
  <rect class="cls-5" x="11.1112401986" y="41.9705043365" width="9.306789078" height="14.0872388489" rx="4.2729990241" ry="4.2729990241" transform="translate(-33.2494890233 64.7787584987) rotate(-90.0000000001)"/>
  <path class="cls-3" d="m55.3744558781,21.6385277281h-19.8399658203c-9.3900146484,0-17.0700073242,7.6799926758-17.0700073242,17.0700073242v20.3699951172c0,9.3899536133,7.6799926758,17.0700073242,17.0700073242,17.0700073242h19.8399658203c9.3900146484,0,17.0700073242-7.6800537109,17.0700073242-17.0700073242v-20.3699951172c0-9.3900146484-7.6799926758-17.0700073242-17.0700073242-17.0700073242Zm8.3500366211,35.0399780273c0,6.3499755859-5.200012207,11.549987793-11.5500488281,11.549987793h-13.4299926758c-6.3599853516,0-11.549987793-5.200012207-11.549987793-11.549987793v-13.7899780273c0-6.3600463867,5.1900024414-11.549987793,11.549987793-11.549987793h13.4299926758c6.3500366211,0,11.5500488281,5.1899414062,11.5500488281,11.549987793v13.7899780273Z"/>
  <path d="m60.7304554391,39.4965471308c0,2.1400146484-1.8600463867,3.8699951172-4.1500244141,3.8699951172-1.3556419063,0-2.5541025711-.6012839323-3.3073993556-1.532726174-.3118261266-.3855691839-.7653431129-.6272469705-1.2612252852-.6272469705h-4.968598271c-.5032118769,0-.9620918265.2487318066-1.2736740382.6438757278-.7529198417.9548417317-1.9674971429,1.5760949753-3.3391274641,1.5760949753-2.299987793,0-4.1599731445-1.7299804688-4.1599731445-3.8699951172s1.8599853516-3.8699951172,4.1599731445-3.8699951172c1.3716303212,0,2.5862076223.6212532436,3.3391274641,1.5760949753.3115822117.3951439212.7704621613.6438757278,1.2736740382.6438757278h4.8797585888c.5110011729,0,.975514142-.2563649464,1.2867173308-.6616731921.750587701-.9775586988,1.9754632633-1.6182950696,3.3707469922-1.6182950696,2.2899780273,0,4.1500244141,1.7399902344,4.1500244141,3.8699951172Z"/>
  <path class="cls-6" d="m52.648522235,46.1086784525c0,2.1400146484-1.8600463867,3.8699951172-4.1500244141,3.8699951172-1.3556419063,0-2.5541025711-.6012839323-3.3073993556-1.532726174-.3118261266-.3855691839-.7653431129-.6272469705-1.2612252852-.6272469705h-4.968598271c-.5032118769,0-.9620918265.2487318066-1.2736740382.6438757278-.7529198417.9548417317-1.9674971429,1.5760949753-3.3391274641,1.5760949753-2.299987793,0-4.1599731445-1.7299804688-4.1599731445-3.8699951172s1.8599853516-3.8699951172,4.1599731445-3.8699951172c1.3716303212,0,2.5862076223.6212532436,3.3391274641,1.5760949753.3115822117.3951439212.7704621613.6438757278,1.2736740382.6438757278h4.8797585888c.5110011729,0,.975514142-.2563649464,1.2867173308-.6616731921.750587701-.9775586988,1.9754632633-1.6182950696,3.3707469922-1.6182950696,2.2899780273,0,4.1500244141,1.7399902344,4.1500244141,3.8699951172Z"/>
  <path d="m60.2836469285,53.3983574725c0,2.1400146484-1.8521882953,3.8699951172-4.1324919098,3.8699951172-1.3499147599,0-2.5433123179-.6012839323-3.2934266683-1.532726174-.3105087626-.3855691839-.762109787-.6272469705-1.2558970183-.6272469705h-4.9476075582c-.5010859703,0-.9580273012.2487318066-1.2682931794.6438757278-.7497390001.9548417317-1.959185107,1.5760949753-3.3250207358,1.5760949753-2.2902710921,0-4.1423986101-1.7299804688-4.1423986101-3.8699951172s1.852127518-3.8699951172,4.1423986101-3.8699951172c1.3658356289,0,2.5752817357.6212532436,3.3250207358,1.5760949753.3102658781.3951439212.767207209.6438757278,1.2682931794.6438757278h4.8591431948c.5088423591,0,.9713929118-.2563649464,1.2812813683-.6616731921.7474167119-.9775586988,1.967117573-1.6182950696,3.3565066817-1.6182950696,2.2803036145,0,4.1324919098,1.7399902344,4.1324919098,3.8699951172Z"/>
  <path class="cls-6" d="m53.0674474189,60.1006946713c0,2.090894481-1.826354364,3.7811663756-4.0748527851,3.7811663756-1.3310864338,0-2.5078387346-.5874825467-3.2474906484-1.4975452156-.3061778519-.3767191403-.7514800406-.6128496503-1.2383800319-.6128496503h-4.8785993726c-.494096929,0-.9446649387.2430226177-1.2506032939.6290967245-.7392817988.932925066-1.9318588067,1.5399185645-3.2786440486,1.5399185645-2.2583268744,0-4.0846213089-1.6902718946-4.0846213089-3.7811663756s1.8262944344-3.7811663756,4.0846213089-3.7811663756c1.3467852419,0,2.5393622498.6069934985,3.2786440486,1.5399185645.3059383552.3860741068.7565063649.6290967245,1.2506032939.6290967245h4.7913688914c.5017451333,0,.9578441286-.2504805525,1.2634103263-.6464856802.7369919014-.9551206061,1.9396806324-1.5811500319,3.3096908352-1.5811500319,2.2484984211,0,4.0748527851,1.7000519042,4.0748527851,3.7811663756Z"/>
</svg>